<svg width="37" height="37" viewBox="0 0 37 37" fill="none" xmlns="http://www.w3.org/2000/svg">
<path fill-rule="evenodd" clip-rule="evenodd" d="M34.1098 18.5003C34.1098 18.9603 33.9271 19.4014 33.6018 19.7267C33.2766 20.0519 32.8354 20.2347 32.3754 20.2347L8.81105 20.2347L15.1011 26.5247C15.4074 26.8534 15.5742 27.2883 15.5663 27.7376C15.5583 28.1869 15.3763 28.6157 15.0586 28.9334C14.7408 29.2512 14.3121 29.4332 13.8628 29.4411C13.4134 29.4491 12.9786 29.2823 12.6498 28.9759L3.3998 19.7259C3.07501 19.4007 2.89258 18.9599 2.89258 18.5003C2.89258 18.0407 3.07501 17.5999 3.3998 17.2747L12.6498 8.02467C12.9786 7.71831 13.4134 7.55152 13.8628 7.55945C14.3121 7.56738 14.7408 7.7494 15.0586 8.06717C15.3763 8.38494 15.5583 8.81364 15.5663 9.26296C15.5742 9.71228 15.4074 10.1471 15.1011 10.4759L8.81105 16.7659L32.3754 16.7659C32.8354 16.7659 33.2766 16.9486 33.6018 17.2739C33.9271 17.5992 34.1098 18.0403 34.1098 18.5003Z" fill="url(#paint0_linear_56_4355)"/>
<defs>
<linearGradient id="paint0_linear_56_4355" x1="18.5012" y1="29.4414" x2="18.5012" y2="7.55918" gradientUnits="userSpaceOnUse">
<stop stop-color="#9BF067"/>
<stop offset="1" stop-color="#22F2D6"/>
</linearGradient>
</defs>
</svg>
