<svg width="32" height="32" viewBox="0 0 32 32" fill="none" xmlns="http://www.w3.org/2000/svg">
<g opacity="0.6">
<path d="M4 16C4 16 9.53011 14.4699 12 12C14.4699 9.53011 16 4 16 4C16 4 17.5301 9.53011 20 12C22.4699 14.4699 28 16 28 16C28 16 22.4699 17.5301 20 20C17.5301 22.4699 16 28 16 28C16 28 14.4699 22.4699 12 20C9.53011 17.5301 4 16 4 16Z" fill="url(#paint0_linear_33_366)"/>
<path d="M22 7C22 7 23.3825 6.61747 24 6C24.6175 5.38253 25 4 25 4C25 4 25.3825 5.38253 26 6C26.6175 6.61747 28 7 28 7C28 7 26.6175 7.38253 26 8C25.3825 8.61747 25 10 25 10C25 10 24.6175 8.61747 24 8C23.3825 7.38253 22 7 22 7Z" fill="url(#paint1_linear_33_366)"/>
<path d="M4 25C4 25 5.38253 24.6175 6 24C6.61747 23.3825 7 22 7 22C7 22 7.38253 23.3825 8 24C8.61747 24.6175 10 25 10 25C10 25 8.61747 25.3825 8 26C7.38253 26.6175 7 28 7 28C7 28 6.61747 26.6175 6 26C5.38253 25.3825 4 25 4 25Z" fill="url(#paint2_linear_33_366)"/>
</g>
<defs>
<linearGradient id="paint0_linear_33_366" x1="4" y1="16" x2="28" y2="16" gradientUnits="userSpaceOnUse">
<stop stop-color="#9BF067"/>
<stop offset="1" stop-color="#22F2D6"/>
</linearGradient>
<linearGradient id="paint1_linear_33_366" x1="22" y1="7" x2="28" y2="7" gradientUnits="userSpaceOnUse">
<stop stop-color="#9BF067"/>
<stop offset="1" stop-color="#22F2D6"/>
</linearGradient>
<linearGradient id="paint2_linear_33_366" x1="4" y1="25" x2="10" y2="25" gradientUnits="userSpaceOnUse">
<stop stop-color="#9BF067"/>
<stop offset="1" stop-color="#22F2D6"/>
</linearGradient>
</defs>
</svg>
