<svg viewBox="0 0 149 29" fill="none" xmlns="http://www.w3.org/2000/svg">
<path d="M11.1602 12.844C11.1962 11.836 11.2322 11.008 11.2322 10.36C11.2322 7.732 10.6922 7.012 9.68417 7.012C8.49617 7.012 7.95617 7.768 7.95617 13.96C7.95617 20.224 8.49617 21.16 9.75617 21.16C10.8002 21.16 11.2682 20.008 11.2682 17.704C11.2682 17.02 11.2322 16.228 11.1962 15.4C12.3482 15.436 13.4642 15.436 14.6522 15.436C15.8042 15.436 16.9922 15.436 18.1802 15.4C18.2162 16.336 18.2522 17.2 18.2522 18.568C18.2522 25.84 15.5522 28.36 9.50417 28.36C3.02417 28.36 0.576172 25.12 0.576172 13.924C0.576172 3.448 3.16817 0.640003 9.64817 0.640003C15.9122 0.640003 18.2522 2.8 18.2522 9.28C18.2522 10.684 18.1802 11.728 18.1082 12.844C16.9562 12.808 15.7322 12.808 14.5802 12.808C13.4282 12.808 12.3122 12.808 11.1602 12.844Z" fill="white"/>
<path d="M19.9942 1H27.8062C27.7342 2.98 27.6982 8.596 27.6622 14.392C27.6622 16.048 27.6622 17.956 27.6982 19.684C28.8862 19.648 30.3262 19.612 31.6582 19.576C31.6222 20.836 31.6222 22.276 31.6222 23.644C31.6222 25.12 31.6222 26.668 31.6582 28H19.9942C20.0302 26.056 20.1022 20.26 20.1022 14.5C20.1022 8.488 20.1022 3.556 19.9942 1Z" fill="white"/>
<path d="M40.634 28H33.002C33.074 24.22 33.074 20.224 33.074 14.5C33.074 8.776 33.074 4.744 33.002 1H40.634C40.562 4.744 40.562 8.74 40.562 14.464C40.562 20.188 40.598 24.22 40.634 28Z" fill="white"/>
<path d="M50.6946 16.444C52.5306 16.444 53.0346 15.652 53.0346 11.764C53.0346 7.516 52.3866 6.83201 50.8026 6.83201C50.5866 6.83201 50.2266 6.83201 49.8306 6.868C49.8306 10.216 49.8306 13.456 49.8666 16.408C50.1186 16.444 50.3706 16.444 50.6946 16.444ZM42.8106 1H52.4226C57.5346 1 59.7666 2.8 59.7666 11.26C59.7666 19.9 58.0746 22.24 51.7026 22.24C51.3066 22.24 50.6226 22.24 49.9386 22.204C50.0106 24.436 50.0826 26.416 50.1906 28H42.8106C42.8826 24.112 42.8826 20.26 42.8826 14.5C42.8826 8.776 42.8826 4.816 42.8106 1Z" fill="white"/>
<path d="M66.8828 18.676V20.26C66.8828 22.024 67.2428 22.672 68.4308 22.672C69.5828 22.672 69.9428 22.096 69.9428 20.8C69.9428 18.856 69.4388 17.812 66.9548 16.948C61.9868 15.256 60.8348 12.808 60.8348 8.092C60.8348 2.872 63.2828 0.604004 68.9348 0.604004C75.1988 0.604004 76.8908 2.69201 76.8908 7.552C76.8908 8.34401 76.8548 9.244 76.8188 10.216C75.9188 10.144 74.4428 10.072 73.2188 10.072C72.3188 10.072 71.5268 10.108 70.9868 10.108C71.0228 9.46 71.0228 8.84801 71.0228 8.308C71.0228 6.94 70.6628 6.256 69.4388 6.256C68.3948 6.256 67.9628 6.83201 67.9628 7.948C67.9628 9.712 68.3588 10.792 71.0588 11.872C75.4508 13.528 77.1068 15.688 77.1068 20.764C77.1068 25.984 74.9468 28.396 69.0068 28.396C62.6348 28.396 60.8708 26.2 60.8708 21.52C60.8708 20.512 60.9068 19.576 60.9788 18.568C61.9868 18.64 63.3908 18.712 64.7948 18.712C65.6228 18.712 66.3788 18.712 66.8828 18.676Z" fill="white"/>
<path d="M86.5892 16.444C88.4252 16.444 88.9292 15.652 88.9292 11.764C88.9292 7.516 88.2812 6.83201 86.6972 6.83201C86.4812 6.83201 86.1212 6.83201 85.7252 6.868C85.7252 10.216 85.7252 13.456 85.7612 16.408C86.0132 16.444 86.2652 16.444 86.5892 16.444ZM78.7052 1H88.3172C93.4292 1 95.6612 2.8 95.6612 11.26C95.6612 19.9 93.9692 22.24 87.5972 22.24C87.2012 22.24 86.5172 22.24 85.8332 22.204C85.9052 24.436 85.9772 26.416 86.0852 28H78.7052C78.7772 24.112 78.7772 20.26 78.7772 14.5C78.7772 8.776 78.7772 4.816 78.7052 1Z" fill="white"/>
<path d="M106.074 17.092C105.858 14.392 105.606 11.584 105.318 9.1C105.102 7.804 104.958 6.076 104.814 4.708H104.598C104.49 6.076 104.31 7.804 104.094 9.1C103.806 11.584 103.554 14.392 103.338 17.092H106.074ZM114.714 28H106.686C106.686 26.992 106.614 25.156 106.47 22.852H102.906C102.762 25.084 102.654 26.92 102.654 28H95.3465C96.4624 21.196 98.5505 4.34801 98.8745 1H110.97C111.402 4.42 113.562 21.16 114.714 28Z" fill="white"/>
<path d="M125.313 12.844C125.349 11.836 125.385 11.008 125.385 10.36C125.385 7.732 124.845 7.012 123.837 7.012C122.649 7.012 122.109 7.768 122.109 13.96C122.109 20.224 122.649 21.16 123.909 21.16C124.953 21.16 125.421 20.008 125.421 17.704C125.421 17.02 125.385 16.228 125.349 15.4C126.501 15.436 127.617 15.436 128.805 15.436C129.957 15.436 131.145 15.436 132.333 15.4C132.369 16.336 132.405 17.2 132.405 18.568C132.405 25.84 129.705 28.36 123.657 28.36C117.177 28.36 114.729 25.12 114.729 13.924C114.729 3.448 117.321 0.640003 123.801 0.640003C130.065 0.640003 132.405 2.8 132.405 9.28C132.405 10.684 132.333 11.728 132.261 12.844C131.109 12.808 129.885 12.808 128.733 12.808C127.581 12.808 126.465 12.808 125.313 12.844Z" fill="white"/>
<path d="M134.147 1H148.439C148.403 1.828 148.403 3.232 148.403 4.384C148.403 5.644 148.403 7.12 148.439 8.02001C145.991 7.984 143.471 7.948 141.419 7.948V11.116C143.759 11.116 146.207 11.08 148.223 11.008C148.187 12.448 148.187 15.508 148.187 17.128C146.243 17.056 143.795 17.02 141.419 17.02V20.296C143.507 20.296 146.135 20.296 148.439 20.26C148.439 21.232 148.403 22.78 148.403 24.148C148.403 25.444 148.439 26.956 148.439 28H134.147C134.219 24.256 134.219 20.26 134.219 14.5C134.219 8.776 134.219 4.636 134.147 1Z" fill="white"/>
</svg>
