<svg viewBox="0 0 44 44" fill="none" xmlns="http://www.w3.org/2000/svg">
<path d="M22 38.5001V38.5185M5.5 16.5001V16.5185M38.5 16.5001V16.5185M14.6667 36.8501C12.1648 35.6298 10.0123 33.7964 8.40957 31.5205C6.80682 29.2446 5.80591 26.6002 5.5 23.8335M29.3333 36.8501C31.8352 35.6298 33.9877 33.7964 35.5904 31.5205C37.1932 29.2446 38.1941 26.6002 38.5 23.8335M11.3667 9.16679C14.3148 6.75404 18.0071 5.43579 21.8167 5.43579C25.6263 5.43579 29.3185 6.75404 32.2667 9.16679M16.5 22.0001C16.5 23.4588 17.0795 24.8578 18.1109 25.8892C19.1424 26.9207 20.5413 27.5001 22 27.5001C23.4587 27.5001 24.8576 26.9207 25.8891 25.8892C26.9205 24.8578 27.5 23.4588 27.5 22.0001C27.5 20.5414 26.9205 19.1425 25.8891 18.111C24.8576 17.0796 23.4587 16.5001 22 16.5001C20.5413 16.5001 19.1424 17.0796 18.1109 18.111C17.0795 19.1425 16.5 20.5414 16.5 22.0001Z" stroke="url(#paint0_linear_43_565)" stroke-width="3" stroke-linecap="round" stroke-linejoin="round"/>
<defs>
<linearGradient id="paint0_linear_43_565" x1="5.5" y1="21.9771" x2="38.5" y2="21.9771" gradientUnits="userSpaceOnUse">
<stop stop-color="#9BF067"/>
<stop offset="1" stop-color="#22F2D6"/>
</linearGradient>
</defs>
</svg>
