<svg viewBox="0 0 40 40" fill="none" xmlns="http://www.w3.org/2000/svg">
<g clip-path="url(#clip0_43_568)">
<path d="M19.732 3.55329C25.0041 3.55329 25.6284 3.57642 27.7018 3.66891C29.6288 3.7537 30.6693 4.07742 31.363 4.3472C32.2803 4.70176 32.9431 5.13339 33.6291 5.81939C34.3228 6.51309 34.7467 7.16825 35.1013 8.08548C35.3711 8.77918 35.6948 9.82744 35.7796 11.7467C35.8721 13.8278 35.8952 14.4521 35.8952 19.7165C35.8952 24.9887 35.8721 25.613 35.7796 27.6864C35.6948 29.6134 35.3711 30.6539 35.1013 31.3476C34.7467 32.2648 34.3151 32.9277 33.6291 33.6137C32.9354 34.3074 32.2803 34.7313 31.363 35.0859C30.6693 35.3557 29.6211 35.6794 27.7018 35.7642C25.6207 35.8567 24.9964 35.8798 19.732 35.8798C14.4598 35.8798 13.8355 35.8567 11.7621 35.7642C9.83515 35.6794 8.7946 35.3557 8.10089 35.0859C7.18367 34.7313 6.5208 34.2997 5.8348 33.6137C5.1411 32.92 4.71717 32.2648 4.36261 31.3476C4.09284 30.6539 3.76911 29.6056 3.68433 27.6864C3.59183 25.6053 3.56871 24.981 3.56871 19.7165C3.56871 14.4444 3.59183 13.8201 3.68433 11.7467C3.76911 9.81973 4.09284 8.77918 4.36261 8.08548C4.71717 7.16825 5.14881 6.50538 5.8348 5.81939C6.5285 5.12568 7.18367 4.70176 8.10089 4.3472C8.7946 4.07742 9.84286 3.7537 11.7621 3.66891C13.8355 3.57642 14.4598 3.55329 19.732 3.55329ZM19.732 0C14.375 0 13.7045 0.0231234 11.6002 0.115617C9.50371 0.208111 8.06236 0.547253 6.81369 1.03284C5.51107 1.54156 4.40886 2.21214 3.31435 3.31435C2.21214 4.40886 1.54156 5.51108 1.03284 6.80598C0.547254 8.06236 0.208111 9.496 0.115617 11.5925C0.0231234 13.7045 0 14.375 0 19.732C0 25.0889 0.0231234 25.7595 0.115617 27.8637C0.208111 29.9602 0.547254 31.4016 1.03284 32.6502C1.54156 33.9528 2.21214 35.0551 3.31435 36.1496C4.40886 37.2441 5.51108 37.9224 6.80598 38.4234C8.06236 38.909 9.49601 39.2481 11.5925 39.3406C13.6968 39.4331 14.3673 39.4562 19.7243 39.4562C25.0812 39.4562 25.7517 39.4331 27.856 39.3406C29.9525 39.2481 31.3939 38.909 32.6425 38.4234C33.9374 37.9224 35.0396 37.2441 36.1342 36.1496C37.2287 35.0551 37.9069 33.9528 38.408 32.6579C38.8935 31.4016 39.2327 29.9679 39.3252 27.8714C39.4177 25.7672 39.4408 25.0966 39.4408 19.7397C39.4408 14.3827 39.4177 13.7122 39.3252 11.6079C39.2327 9.51142 38.8935 8.07006 38.408 6.8214C37.9224 5.51107 37.2518 4.40886 36.1496 3.31435C35.0551 2.21985 33.9528 1.54156 32.6579 1.04055C31.4016 0.554961 29.9679 0.215818 27.8714 0.123325C25.7595 0.0231234 25.0889 0 19.732 0Z" fill="white"/>
<path d="M19.7319 9.59619C14.1361 9.59619 9.59619 14.1361 9.59619 19.7319C9.59619 25.3278 14.1361 29.8677 19.7319 29.8677C25.3278 29.8677 29.8677 25.3278 29.8677 19.7319C29.8677 14.1361 25.3278 9.59619 19.7319 9.59619ZM19.7319 26.3067C16.1016 26.3067 13.1572 23.3623 13.1572 19.7319C13.1572 16.1016 16.1016 13.1572 19.7319 13.1572C23.3623 13.1572 26.3067 16.1016 26.3067 19.7319C26.3067 23.3623 23.3623 26.3067 19.7319 26.3067Z" fill="white"/>
<path d="M32.6349 9.1954C32.6349 10.5057 31.5713 11.5617 30.2686 11.5617C28.9583 11.5617 27.9023 10.498 27.9023 9.1954C27.9023 7.88507 28.966 6.8291 30.2686 6.8291C31.5713 6.8291 32.6349 7.89278 32.6349 9.1954Z" fill="white"/>
</g>
<defs>
<clipPath id="clip0_43_568">
<rect width="39.4639" height="39.4639" fill="white"/>
</clipPath>
</defs>
</svg>
