<svg viewBox="0 0 40 29" xmlns="http://www.w3.org/2000/svg">
<path d="M39.0708 6.8393C39.0708 6.8393 38.6854 4.11845 37.4984 2.92374C35.9954 1.35135 34.3151 1.34364 33.5443 1.25115C28.0256 0.850342 19.7397 0.850342 19.7397 0.850342H19.7242C19.7242 0.850342 11.4384 0.850342 5.91959 1.25115C5.14881 1.34364 3.46851 1.35135 1.96549 2.92374C0.778488 4.11845 0.400805 6.8393 0.400805 6.8393C0.400805 6.8393 0 10.038 0 13.2291V16.2197C0 19.4107 0.393098 22.6095 0.393098 22.6095C0.393098 22.6095 0.778487 25.3303 1.95778 26.525C3.4608 28.0974 5.434 28.0434 6.31269 28.213C9.47288 28.5136 19.732 28.6061 19.732 28.6061C19.732 28.6061 28.0256 28.5907 33.5443 28.1976C34.3151 28.1051 35.9954 28.0974 37.4984 26.525C38.6854 25.3303 39.0708 22.6095 39.0708 22.6095C39.0708 22.6095 39.4639 19.4184 39.4639 16.2197V13.2291C39.4639 10.038 39.0708 6.8393 39.0708 6.8393ZM15.6545 19.8501V8.75854L26.3144 14.3236L15.6545 19.8501Z"/>
</svg>
