<svg width="140" height="53" viewBox="0 0 140 53" fill="none" xmlns="http://www.w3.org/2000/svg">
<g clip-path="url(#clip0_56_3835)">
<path fill-rule="evenodd" clip-rule="evenodd" d="M40.7049 9.20813L41.2562 9.8974C41.9455 11.1837 42.2215 12.5165 42.0835 13.8492C41.9462 14.6765 41.578 15.503 41.0725 16.2845C40.6592 16.928 40.153 17.4793 39.5559 17.8926C39.1884 18.1221 38.8202 18.3059 38.4991 18.3981L37.5796 18.3523C37.4668 18.2874 37.3732 18.1935 37.3087 18.0804C37.2441 17.9673 37.2108 17.8391 37.2121 17.7088C37.2121 17.4793 37.3044 17.2956 37.4416 17.1576C37.5796 17.0196 37.9014 16.928 38.3147 16.928C38.6364 16.928 38.9582 16.7443 39.3714 16.4225C39.7847 16.1008 40.1065 15.6875 40.4289 15.2278C40.8422 14.4927 41.026 13.7112 41.026 12.884C40.9805 12.089 40.744 11.3166 40.3367 10.6324L39.7397 9.85091L39.1884 9.29965C37.9936 8.38087 36.3856 7.8296 34.3178 7.6916C32.6175 7.55433 31.0552 7.6916 29.5845 8.1056C25.0814 9.25461 22.3236 11.3224 21.2668 14.2175C20.945 15.1827 20.8993 16.01 21.1753 16.7443C21.359 17.1583 21.6808 17.6173 22.1405 18.0771H22.1863L22.3243 18.2151C22.7383 18.5361 22.9213 18.8578 22.9678 19.1796C22.9678 19.5929 22.6925 19.9153 22.1863 20.0991C21.8653 20.2364 21.1753 20.4666 20.1185 20.7884L19.016 21.1094C16.0744 22.0289 13.6856 23.4532 11.8931 25.3837L11.4798 25.7512L11.0658 26.3018C9.68728 27.9105 8.67627 29.6566 8.07924 31.5406C7.66525 32.8269 7.48149 34.0682 7.57373 35.3094C7.61949 36.5492 7.987 37.6532 8.58475 38.6628C9.18049 39.7272 10.0142 40.6394 11.0208 41.3283C12.0776 42.0176 13.2723 42.5231 14.6051 42.8449C16.1216 43.1666 18.0057 43.1216 20.2572 42.7998C22.7848 42.3858 24.8983 41.6958 26.5064 40.6391L27.2421 40.1793L28.0229 39.6288C28.9837 38.7836 29.8893 37.8777 30.7342 36.9167C31.6995 35.8142 32.3422 34.7109 32.7562 33.6542C33.078 32.5974 33.1702 31.7251 33.0322 30.9901C32.9407 30.5303 32.7562 30.1614 32.4352 29.8861L32.343 29.7488C32.205 29.6566 32.0677 29.4271 31.8832 29.0596C31.8832 28.83 31.929 28.692 32.067 28.5548C32.2042 28.4175 32.3422 28.3253 32.5725 28.3253C32.8027 28.3253 33.078 28.4625 33.3075 28.6928L33.3533 28.7378C33.675 29.0596 33.9045 29.5651 34.0883 30.1621C34.3178 30.9436 34.3178 31.7709 34.1798 32.5981C33.7208 35.1714 32.0662 37.6539 29.2169 40.0428L28.8494 40.318L28.4819 40.687L27.6089 41.2375C25.9086 42.3866 23.9323 43.2138 21.635 43.7201C19.2912 44.2248 16.9474 44.3171 14.5121 44.0404C12.2606 43.7651 10.3308 43.2131 8.76778 42.433C7.20549 41.6043 5.9192 40.5025 4.90819 39.0782L4.03517 37.7462C3.71341 37.2399 3.4839 36.5507 3.25366 35.7699C2.84039 34.1611 2.93191 32.5059 3.52966 30.8986C3.75917 30.3015 4.21892 29.4728 4.90819 28.4625C6.0572 26.946 7.15974 25.7519 8.21651 24.8775L8.67627 24.51L9.18178 24.1425C11.8924 22.2119 15.7069 20.6954 20.6233 19.6386C21.4048 19.4549 21.8188 19.2711 21.8188 19.1331C21.8188 19.0416 21.635 18.9494 21.2675 18.8121H21.176C18.8322 18.1228 17.6374 16.928 17.5917 15.3193V14.768C17.5917 14.0787 17.8212 13.3437 18.3267 12.6537C18.7865 11.873 19.4757 11.1837 20.3945 10.5402C22.3701 8.9779 25.0356 7.82888 28.2982 7.13961C33.7665 5.9906 37.7641 6.4961 40.2459 8.74765L40.7049 9.20813Z" fill="#111111"/>
<path fill-rule="evenodd" clip-rule="evenodd" d="M48.8834 7.64546C48.3779 7.37019 47.8266 7.18571 47.1831 7.04771C46.1302 6.87028 45.0528 6.90162 44.012 7.13995C43.001 7.36946 41.7605 7.92072 40.2897 8.74799L39.1864 9.29926C37.8274 10.0903 36.5499 11.0138 35.3726 12.0563C34.2236 13.0216 33.1211 14.1699 32.0643 15.5026C30.8695 16.8354 29.491 18.949 27.9744 21.844C27.1839 23.3016 26.4482 24.7882 25.7687 26.3006L19.4273 26.5774C16.5322 26.4851 14.0047 26.0711 11.9369 25.3826L10.5126 24.7841L9.22629 24.1413C7.57249 23.1761 6.14748 22.0271 4.99918 20.7865L4.58519 20.2345C3.94168 19.1778 3.66641 18.0745 3.75793 16.972C3.80368 16.4664 3.94168 15.8229 4.26344 15.0879L4.90694 13.7094L4.99918 13.5256C5.96372 11.7796 7.52601 10.1251 9.73253 8.56278C11.9383 6.95474 14.5116 5.66772 17.4982 4.61095L18.3712 4.38143L19.6575 4.19768L21.6795 4.24344C21.9091 4.19768 22.0928 4.15192 22.2308 4.05968C22.3681 3.9224 22.4146 3.83017 22.4146 3.69217C22.3688 3.0029 21.9548 2.63466 21.0825 2.63466C20.2088 2.58891 19.152 2.81842 17.9579 3.23241C17.1764 3.46193 16.1197 3.87592 14.8791 4.47295C13.0866 5.16221 11.2948 6.12747 9.41077 7.45952C7.34298 8.88381 5.8722 10.2623 4.90767 11.6416C4.31065 12.5146 3.85089 13.2954 3.62138 13.8931L2.97642 15.6871L2.70042 17.1114C2.37867 19.087 3.11369 20.8337 4.90622 22.258C6.05523 23.3148 7.15777 24.1878 8.21454 24.8771L9.17981 25.4741L11.1096 26.2556C12.8099 26.9449 14.8777 27.3581 17.3595 27.5877C19.7948 27.8172 22.4603 27.7721 25.3096 27.4504C24.5281 29.1964 23.8389 30.6207 23.2418 31.6775C22.3681 33.194 21.4493 34.4353 20.4848 35.3998C19.1985 34.5275 18.0952 33.9305 17.1757 33.5158C16.3027 33.1483 15.4754 32.9652 14.7404 32.9652C13.7751 32.9652 12.9486 33.2405 12.3051 33.7453C11.6616 34.2501 11.3398 34.8493 11.3398 35.5836C11.3398 36.3651 11.6616 37.0079 12.3051 37.5599C13.0859 38.2026 14.1891 38.5244 15.6599 38.5244C17.4982 38.5244 19.1985 37.9724 20.7143 36.9156C22.6906 38.3414 24.6661 39.5812 26.5966 40.5922L26.8719 40.8239L27.6534 41.2364C31.4673 43.3514 35.0981 44.2237 38.5901 43.8562C41.945 43.4887 44.7943 42.063 47.1838 39.5819L48.8841 37.8823V35.9983L47.0916 37.6521C44.2887 39.7656 41.2092 40.9147 37.8551 41.1449C35.3283 41.3279 32.479 40.9604 29.3079 40.0409L28.0217 39.6284C26.0461 38.8469 23.9318 37.6979 21.726 36.1813C22.9208 35.2618 24.2536 33.8833 25.6779 31.9992C26.9184 30.3454 28.0217 28.6444 28.9404 26.9449C32.065 26.3006 35.2818 25.1066 38.5901 23.4063C41.8992 21.6603 44.7485 19.6382 47.1838 17.3867L48.0111 16.6517L48.8841 15.7786V12.4703C48.5166 13.2518 47.9188 14.1248 47.0916 15.0894C45.6215 16.9277 43.553 18.7659 40.8875 20.6035C37.3031 23.0395 33.5808 24.6941 29.6747 25.6586C31.7425 21.7068 33.7646 18.4435 35.6951 15.9159C37.097 14.0186 38.6655 12.2503 40.3819 10.632L40.6115 10.4025L41.3007 9.89701C43.4143 8.28896 45.3441 7.69121 47.1366 8.19672C47.9174 8.42623 48.5151 8.79375 48.8826 9.29998L48.8834 7.64546ZM14.7404 34.0685C15.8437 34.0685 17.4517 34.7578 19.6117 36.137C18.3712 37.0093 17.0384 37.4233 15.5684 37.4233C14.3279 37.4233 13.4541 37.1466 12.8571 36.5496C12.5811 36.2743 12.4431 35.9525 12.4431 35.585C12.4431 35.2633 12.5811 34.988 12.8571 34.7578C13.2696 34.298 13.8674 34.0685 14.7404 34.0685Z" fill="white"/>
<path fill-rule="evenodd" clip-rule="evenodd" d="M50.0341 49.6004H2.05859V1.57987H50.0333L50.0341 49.6004ZM47.1848 46.7046H4.9079V4.42844H47.1848V46.7046ZM102.189 2.72815L106.234 2.82039L110.185 2.77464L110.093 3.41815V4.06166L108.255 3.92438L104.901 3.83214H103.982L103.935 8.05997V9.62226L103.982 9.66802L109.588 9.5765L109.542 10.1743L109.588 10.7713L105.452 10.5875L103.983 10.6333H103.936L104.121 17.4337L104.166 17.4794H104.902L110.324 17.1119L110.279 17.7547V18.444L101.87 18.4905C102.007 17.2499 102.053 16.2389 102.053 15.4117L102.145 10.5403C102.1 5.94497 102.008 3.3259 101.916 2.72815H102.189ZM99.1564 3.41742L99.2029 4.06093L97.3188 3.92366L93.964 3.83142H93.0445L92.9995 8.05925V9.62154L93.0445 9.66729L98.6509 9.57578L98.6058 10.1735L98.6509 10.7706L94.516 10.5868L93.0452 10.6326H93.0002L93.1832 17.433L93.2297 17.4787H93.9647L99.3866 17.1112L99.3416 17.754V18.4433L90.9324 18.4897C91.0697 17.2492 91.1169 16.2382 91.1169 15.4109L91.2077 10.5396C91.1627 5.94424 91.0704 3.32518 90.9782 2.72743H91.2549L95.2975 2.81967L99.2494 2.77391L99.1564 3.41742ZM99.1564 0.0175781H90.8859V0.982116H99.1564V0.0175781ZM100.49 23.8208L100.305 23.8666L100.215 35.0793L100.26 36.2269L100.352 37.5604L103.017 37.6526L105.591 37.5139C106.326 37.3766 106.923 37.1936 107.335 37.0091C107.657 36.8261 108.025 36.5494 108.439 36.2276L108.899 35.8151C110.231 34.4816 110.875 32.6898 110.83 30.3467C110.783 27.6361 110.001 25.7521 108.577 24.6953C107.98 24.2813 107.382 23.9596 106.831 23.8216L104.074 23.592L100.49 23.8208ZM99.9386 22.9013L104.902 22.8098L108.486 23.1316C109.313 23.3611 110.095 23.8208 110.831 24.5101C112.346 25.9344 113.128 27.8184 113.175 30.0707C113.175 31.4027 112.898 32.689 112.301 33.8388C111.841 34.7174 111.253 35.5225 110.555 36.2276L110.05 36.6874C109.177 37.3766 108.257 37.8829 107.247 38.1131C106.143 38.3884 104.582 38.5256 102.606 38.4806L98.5615 38.5256H98.194C98.2405 38.3884 98.2863 37.6533 98.3313 36.4121L98.47 29.9792C98.4235 27.7734 98.3778 26.2569 98.3313 25.3846L98.194 22.8105L99.9386 22.9013ZM115.654 22.7183L119.652 22.8556L123.604 22.8098L123.512 23.4533V24.0503L121.72 23.9588L118.319 23.8673H117.4L117.353 28.0951V29.6117L117.4 29.6567L123.006 29.5645L122.96 30.1615L123.006 30.8057L118.87 30.6212H117.4L117.354 30.6677L117.538 37.4231L117.631 37.4681L118.366 37.5132L123.742 37.1457L123.697 37.7441V38.4319L115.288 38.5242L115.471 36.2262V35.4461L115.563 30.529C115.518 25.9794 115.426 23.3596 115.333 22.7168H115.654V22.7183ZM131.784 22.8098C133.53 22.7641 134.817 23.0851 135.643 23.8666C136.332 24.4643 136.655 25.3366 136.655 26.3934C136.655 27.4502 136.195 28.3239 135.321 29.104C134.449 29.8855 133.208 30.3903 131.646 30.7128L131.691 30.7592L133.344 32.8728L137.343 37.9272L137.94 38.6164H135.458L130.771 32.5038L129.347 30.8965H128.427C128.382 31.4935 128.382 32.413 128.427 33.6993L128.657 38.5242L127.417 38.4319L126.36 38.5242L126.451 36.1354C126.497 34.8019 126.543 32.7348 126.59 29.977L126.497 25.1979L126.36 22.8084L128.014 22.8999L131.784 22.8098ZM128.429 23.8666V30.0235L129.67 30.07L131.646 29.9327C132.076 29.7873 132.491 29.6025 132.886 29.3807C133.375 29.1211 133.775 28.7209 134.035 28.2317C134.357 27.6797 134.541 27.0827 134.495 26.4856C134.358 24.5551 133.116 23.5906 130.773 23.5906C129.578 23.5906 128.796 23.6821 128.476 23.8201L128.429 23.8666ZM59.362 3.83142H58.489L58.4433 8.05925V9.62154L58.489 9.66729L64.0954 9.57578L64.0496 10.1735L64.0954 10.7706L59.9598 10.5868L58.4897 10.6326H58.444L58.627 17.433L58.6728 17.4787H59.4078L64.8304 17.1112L64.7389 17.754L64.7846 18.4433L56.3755 18.4897C56.5135 17.2492 56.5592 16.2382 56.5592 15.4109L56.6515 10.5396C56.6057 5.94424 56.5135 3.32518 56.4219 2.72743H56.6972L60.7413 2.81967L64.6931 2.77391L64.6016 3.41742V4.06093L62.7633 3.92366L59.362 3.83142ZM57.5237 22.8098L58.6728 22.7183C58.3975 25.1543 58.3053 27.4981 58.3975 29.6567C58.3975 32.7362 58.4433 34.9406 58.489 36.2276L58.5348 37.0563L58.5805 37.4689L59.5458 37.5611L62.6704 37.4689L65.0599 37.2844L65.0142 37.9286V38.5256L62.5788 38.4806C61.7051 38.4341 60.3266 38.4341 58.351 38.4806L56.3747 38.5256L56.5127 35.4476L56.6042 30.7135C56.6042 28.7372 56.5127 26.0717 56.3747 22.7183L57.5237 22.8098ZM66.9439 15.5032C68.0014 17.1119 69.2877 17.9392 70.85 17.9392C71.9068 17.9392 72.7791 17.5717 73.4684 16.8359C74.1126 16.1467 74.4344 15.3194 74.4344 14.3541C74.4344 13.5726 74.1576 12.9299 73.6528 12.4244C73.1481 11.9188 72.3193 11.4591 71.1718 11.0458C69.1955 10.3566 67.9085 9.52929 67.3572 8.56403C67.0362 7.96701 66.8524 7.36926 66.8524 6.67999C66.8524 5.3937 67.3115 4.3362 68.2302 3.55469C69.1497 2.72743 70.3445 2.31416 71.8618 2.31416C73.4691 2.35992 74.6646 2.72743 75.4454 3.50894L74.8026 5.25498C74.2056 3.83069 73.1938 3.1407 71.6773 3.18718C70.7128 3.18718 69.9313 3.4167 69.3793 3.92293C68.828 4.42844 68.552 5.11771 68.552 5.99073C68.5977 7.23126 69.1955 8.15076 70.3445 8.70203L72.4588 9.52929C73.7451 9.94256 74.6646 10.4938 75.2616 11.1373C75.8586 11.7808 76.1339 12.6081 76.1339 13.5734C76.1339 14.9977 75.5819 16.2389 74.4801 17.2034C73.4233 18.1687 72.0913 18.6285 70.4825 18.6285C68.966 18.6285 67.679 18.1687 66.53 17.2957L66.9439 15.5032ZM86.1526 3.87717L83.9918 3.83142H83.9468L83.8095 9.57578L83.763 12.7468L83.9475 18.4912L82.7527 18.399L81.696 18.4912C81.8332 16.9747 81.9255 15.0441 81.9255 12.7926L81.879 6.40545L81.7882 3.83214L76.7796 4.06166L76.8246 3.41815L76.7796 2.77464C76.9169 2.8204 78.8467 2.8204 82.569 2.86615H83.2583L88.8646 2.77464L88.7724 3.37166L88.8646 4.06093L86.1526 3.87717ZM73.6993 22.2585L74.8484 25.0621L77.6984 31.495L79.6274 35.8601L80.8687 38.5256L79.6739 38.4334L78.4327 38.5256L76.7789 34.3908L75.8594 32.185L75.8129 32.1385H69.8855L69.8397 32.185L68.9667 34.2985L68.231 36.2276C67.8635 37.1936 67.5875 37.9736 67.4502 38.5728L66.6687 38.4806L65.8414 38.5256L66.8067 36.3198L73.1488 22.2585H73.6993ZM83.9018 22.7183L83.7173 27.5889V30.8987C83.6722 32.875 83.8095 34.1613 84.0848 34.7583C84.3143 35.3553 84.6368 35.8151 85.0043 36.2276C85.878 37.2844 87.1651 37.8364 88.7724 37.7906C89.9214 37.7456 90.8409 37.5611 91.5752 37.1464C91.9892 36.9169 92.4039 36.6416 92.7242 36.2269C92.9537 35.9066 93.184 35.5841 93.3684 35.2166C93.6902 34.6196 93.8732 33.9753 94.0112 33.2861C94.1035 32.6433 94.1485 31.4943 94.1485 29.8405V27.7269C94.1035 26.4857 94.0577 24.8319 93.9204 22.7176L94.7005 22.8548L95.5278 22.7176C95.4827 23.1766 95.437 24.7396 95.3905 27.3579L95.3455 29.7482C95.299 31.2648 95.2532 32.3666 95.2082 33.0565C95.1617 33.6085 95.0237 34.2056 94.8392 34.8026C94.7019 35.3088 94.4267 35.7686 94.1042 36.2269L93.5072 36.9161C92.3582 38.1574 90.7044 38.8002 88.4986 38.8002C87.4418 38.8002 86.5223 38.6629 85.65 38.3876C84.7762 38.1124 84.0412 37.7449 83.5364 37.2386C83.1952 36.948 82.9006 36.6068 82.6627 36.2269L82.2952 35.4468C82.0657 34.7576 81.9277 33.793 81.9277 32.5968V29.2434L81.8812 27.1284C81.8812 26.3934 81.7904 24.9234 81.6517 22.7176L82.8007 22.8548L83.9018 22.7183ZM84.7283 42.248L85.4633 48.7281L85.0036 48.6816L84.5438 48.7281L84.4988 47.4403L84.1313 43.9025L82.6147 46.6131L81.6488 48.6358H81.6037L79.1677 43.994L78.8924 46.4751L78.7079 48.7281L78.3404 48.6816L78.0652 48.7281L78.9847 42.248H79.1219L81.7875 47.2566L84.5903 42.248H84.7283ZM92.7707 42.3402C94.195 42.2937 94.8843 42.8 94.8843 43.8567C94.8843 44.546 94.6075 45.0515 94.057 45.3733C93.5972 45.6485 93.0002 45.7858 92.2187 45.7858H91.5745L91.6667 48.7281L91.207 48.6816L90.7472 48.7281L90.8394 45.4183L90.7472 42.3402H92.7707ZM75.4454 31.2655L74.0211 27.8649C73.2861 26.1639 72.8721 25.3374 72.8263 25.3838L72.3201 26.4864L70.2065 31.2204L70.2523 31.2655H75.4454ZM71.7695 43.4892C71.3555 42.8 70.6655 42.4775 69.7475 42.4775C68.8737 42.4775 68.1845 42.7992 67.7255 43.4892C67.3572 43.994 67.1735 44.6368 67.1735 45.5105C67.1735 46.3378 67.3572 47.0271 67.7255 47.5318C68.1845 48.2211 68.8737 48.5436 69.7475 48.5436C70.6663 48.5436 71.3555 48.2218 71.7695 47.5318C72.137 47.0271 72.3201 46.3371 72.3201 45.5105C72.3201 44.684 72.137 43.994 71.7695 43.4892ZM72.3201 47.9458C71.723 48.5429 70.8508 48.8181 69.7475 48.8181C68.69 48.8181 67.817 48.5429 67.1742 47.9458C66.5772 47.3488 66.2554 46.5673 66.2554 45.5098C66.2554 44.4523 66.5772 43.6715 67.1742 43.0738C67.8177 42.4767 68.6907 42.2015 69.7475 42.2015C70.8508 42.2015 71.723 42.4767 72.3201 43.0738C72.9643 43.6708 73.2861 44.4523 73.2861 45.5098C73.2861 46.5673 72.9643 47.3488 72.3201 47.9458ZM91.5745 45.4183L92.0807 45.4648C93.367 45.4648 94.0098 44.9585 94.0098 43.9482C94.0098 43.0745 93.505 42.6147 92.4482 42.6147L91.621 42.707L91.5745 45.4183ZM61.8896 42.5697C61.7973 42.845 61.7516 43.0745 61.7051 43.3047H61.6136C61.1538 42.8 60.5568 42.5232 59.8218 42.5232C59.0403 42.5232 58.3975 42.845 57.8913 43.4427C57.478 43.949 57.2942 44.684 57.2942 45.5563C57.2942 46.43 57.5237 47.1651 57.9835 47.6713C58.3975 48.1761 58.9945 48.4513 59.7753 48.4986C60.5111 48.4986 61.2003 48.2218 61.8438 47.6713L61.8896 47.7163L61.7516 48.2683C61.2003 48.6358 60.511 48.8189 59.638 48.8189C58.627 48.8189 57.8455 48.5436 57.2485 47.9466C56.6515 47.3495 56.329 46.568 56.329 45.5563C56.329 44.4995 56.6965 43.6272 57.3865 43.0295C57.9835 42.4775 58.8565 42.2022 59.9598 42.2022C60.7406 42.2022 61.3841 42.3402 61.8896 42.5697ZM128.981 42.5697V42.845L126.592 42.8L126.5 44.6368V45.0965H127.786L128.796 45.0515L128.751 45.3733L128.796 45.6028L127.142 45.5105L126.5 45.5556V45.6943L126.545 48.2676L127.694 48.2211L129.026 48.1289V48.7273H128.981V48.6809L125.626 48.7273L125.718 46.9341V46.1991L125.763 45.1873L125.672 42.3387H128.981V42.5697ZM136.563 42.6155L136.287 43.397H136.195C136.103 43.1675 135.966 42.9372 135.735 42.8C135.506 42.6155 135.276 42.5232 135.046 42.5704C134.679 42.524 134.402 42.6627 134.219 42.8922C133.989 43.1217 133.851 43.3519 133.851 43.6722C133.851 44.0398 133.989 44.3165 134.264 44.546C134.448 44.6833 134.816 44.8663 135.368 45.0965C135.873 45.326 136.195 45.5105 136.378 45.695C136.655 45.9703 136.792 46.3378 136.792 46.7518C136.792 47.3488 136.563 47.8086 136.148 48.2211C135.735 48.6351 135.183 48.8181 134.541 48.8181C133.944 48.8181 133.392 48.6351 132.978 48.2676L133.162 47.4389H133.254C133.392 47.7606 133.575 47.9909 133.851 48.1754C134.127 48.3126 134.402 48.4049 134.724 48.4049C135.138 48.4049 135.459 48.2676 135.688 48.0374C135.919 47.8078 136.057 47.4854 136.057 47.1178C136.057 46.7503 135.965 46.4736 135.735 46.2906C135.551 46.1061 135.183 45.9231 134.679 45.7386C134.127 45.5091 133.714 45.2338 133.484 44.9571C133.241 44.6768 133.11 44.3174 133.115 43.9468C133.115 43.3948 133.344 42.935 133.759 42.6133C134.081 42.338 134.586 42.2007 135.183 42.2007C135.674 42.1977 136.155 42.3422 136.563 42.6155ZM114.046 42.3402L113.861 48.8189H113.724L112.484 47.4403L109.037 43.7195L108.992 43.7645L109.037 48.1296L109.082 48.7281L108.762 48.6816L108.394 48.7281L108.485 47.579L108.577 45.4183V42.2022H108.715L113.403 47.1643L113.356 42.3395L114.046 42.3402ZM120.341 42.3402L120.249 45.1888C120.249 46.2456 120.249 47.0271 120.294 47.6248L120.341 48.7288L119.881 48.6823L119.421 48.7288L119.466 47.6248L119.421 42.3409L120.341 42.3402ZM101.18 42.248H101.363L104.121 48.7281L103.661 48.6816L103.201 48.7281L102.189 46.2005H99.8006L98.8811 48.7281L98.5594 48.6816L98.2391 48.7281L101.088 42.4324V42.3402L101.18 42.248ZM101.042 43.442L99.9851 45.8323H102.052L101.363 44.2693L101.042 43.442Z" fill="white"/>
</g>
<defs>
<clipPath id="clip0_56_3835">
<rect width="140" height="52.64" fill="white"/>
</clipPath>
</defs>
</svg>
